<mxfile host="app.diagrams.net" modified="2024-02-24T19:29:25.137Z" agent="Mozilla/5.0 (Windows NT 10.0; Win64; x64) AppleWebKit/537.36 (KHTML, like Gecko) Chrome/121.0.0.0 Safari/537.36" etag="zvvngxlhb6Oxdxz6diKj" version="23.1.5" type="device">
  <diagram name="PÃ¡gina-1" id="9F19ZX0XG4rPqTlxlP5H">
    <mxGraphModel dx="4076" dy="2082" grid="1" gridSize="10" guides="1" tooltips="1" connect="1" arrows="1" fold="1" page="1" pageScale="1" pageWidth="827" pageHeight="1169" math="0" shadow="0">
      <root>
        <mxCell id="0" />
        <mxCell id="1" parent="0" />
        <mxCell id="S2G6jcT_ubKv5hBvtlH8-1" value="Customer" style="shape=table;startSize=30;container=1;collapsible=0;childLayout=tableLayout;fixedRows=1;rowLines=0;fontStyle=0;strokeColor=default;fontSize=16;" parent="1" vertex="1">
          <mxGeometry x="-840" y="-490" width="274.5" height="120" as="geometry" />
        </mxCell>
        <mxCell id="S2G6jcT_ubKv5hBvtlH8-2" value="" style="shape=tableRow;horizontal=0;startSize=0;swimlaneHead=0;swimlaneBody=0;top=0;left=0;bottom=0;right=0;collapsible=0;dropTarget=0;fillColor=none;points=[[0,0.5],[1,0.5]];portConstraint=eastwest;strokeColor=inherit;fontSize=16;" parent="S2G6jcT_ubKv5hBvtlH8-1" vertex="1">
          <mxGeometry y="30" width="274.5" height="30" as="geometry" />
        </mxCell>
        <mxCell id="S2G6jcT_ubKv5hBvtlH8-3" value="Guid" style="shape=partialRectangle;html=1;whiteSpace=wrap;connectable=0;fillColor=none;top=0;left=0;bottom=0;right=0;overflow=hidden;pointerEvents=1;strokeColor=inherit;fontSize=16;" parent="S2G6jcT_ubKv5hBvtlH8-2" vertex="1">
          <mxGeometry width="92" height="30" as="geometry">
            <mxRectangle width="92" height="30" as="alternateBounds" />
          </mxGeometry>
        </mxCell>
        <mxCell id="S2G6jcT_ubKv5hBvtlH8-4" value="Id (PK)" style="shape=partialRectangle;html=1;whiteSpace=wrap;connectable=0;fillColor=none;top=0;left=0;bottom=0;right=0;align=left;spacingLeft=6;overflow=hidden;strokeColor=inherit;fontSize=16;" parent="S2G6jcT_ubKv5hBvtlH8-2" vertex="1">
          <mxGeometry x="92" width="183" height="30" as="geometry">
            <mxRectangle width="183" height="30" as="alternateBounds" />
          </mxGeometry>
        </mxCell>
        <mxCell id="S2G6jcT_ubKv5hBvtlH8-5" value="" style="shape=tableRow;horizontal=0;startSize=0;swimlaneHead=0;swimlaneBody=0;top=0;left=0;bottom=0;right=0;collapsible=0;dropTarget=0;fillColor=none;points=[[0,0.5],[1,0.5]];portConstraint=eastwest;strokeColor=inherit;fontSize=16;" parent="S2G6jcT_ubKv5hBvtlH8-1" vertex="1">
          <mxGeometry y="60" width="274.5" height="30" as="geometry" />
        </mxCell>
        <mxCell id="S2G6jcT_ubKv5hBvtlH8-6" value="String" style="shape=partialRectangle;html=1;whiteSpace=wrap;connectable=0;fillColor=none;top=0;left=0;bottom=0;right=0;overflow=hidden;strokeColor=inherit;fontSize=16;" parent="S2G6jcT_ubKv5hBvtlH8-5" vertex="1">
          <mxGeometry width="92" height="30" as="geometry">
            <mxRectangle width="92" height="30" as="alternateBounds" />
          </mxGeometry>
        </mxCell>
        <mxCell id="S2G6jcT_ubKv5hBvtlH8-7" value="Name" style="shape=partialRectangle;html=1;whiteSpace=wrap;connectable=0;fillColor=none;top=0;left=0;bottom=0;right=0;align=left;spacingLeft=6;overflow=hidden;strokeColor=inherit;fontSize=16;" parent="S2G6jcT_ubKv5hBvtlH8-5" vertex="1">
          <mxGeometry x="92" width="183" height="30" as="geometry">
            <mxRectangle width="183" height="30" as="alternateBounds" />
          </mxGeometry>
        </mxCell>
        <mxCell id="S2G6jcT_ubKv5hBvtlH8-111" value="" style="shape=tableRow;horizontal=0;startSize=0;swimlaneHead=0;swimlaneBody=0;top=0;left=0;bottom=0;right=0;collapsible=0;dropTarget=0;fillColor=none;points=[[0,0.5],[1,0.5]];portConstraint=eastwest;strokeColor=inherit;fontSize=16;" parent="S2G6jcT_ubKv5hBvtlH8-1" vertex="1">
          <mxGeometry y="90" width="274.5" height="30" as="geometry" />
        </mxCell>
        <mxCell id="S2G6jcT_ubKv5hBvtlH8-112" value="String" style="shape=partialRectangle;html=1;whiteSpace=wrap;connectable=0;fillColor=none;top=0;left=0;bottom=0;right=0;overflow=hidden;strokeColor=inherit;fontSize=16;" parent="S2G6jcT_ubKv5hBvtlH8-111" vertex="1">
          <mxGeometry width="92" height="30" as="geometry">
            <mxRectangle width="92" height="30" as="alternateBounds" />
          </mxGeometry>
        </mxCell>
        <mxCell id="S2G6jcT_ubKv5hBvtlH8-113" value="Email" style="shape=partialRectangle;html=1;whiteSpace=wrap;connectable=0;fillColor=none;top=0;left=0;bottom=0;right=0;align=left;spacingLeft=6;overflow=hidden;strokeColor=inherit;fontSize=16;" parent="S2G6jcT_ubKv5hBvtlH8-111" vertex="1">
          <mxGeometry x="92" width="183" height="30" as="geometry">
            <mxRectangle width="183" height="30" as="alternateBounds" />
          </mxGeometry>
        </mxCell>
        <mxCell id="S2G6jcT_ubKv5hBvtlH8-11" value="Transaction" style="shape=table;startSize=30;container=1;collapsible=0;childLayout=tableLayout;fixedRows=1;rowLines=0;fontStyle=0;strokeColor=default;fontSize=16;" parent="1" vertex="1">
          <mxGeometry x="-340" y="-710" width="229" height="150" as="geometry" />
        </mxCell>
        <mxCell id="S2G6jcT_ubKv5hBvtlH8-12" value="" style="shape=tableRow;horizontal=0;startSize=0;swimlaneHead=0;swimlaneBody=0;top=0;left=0;bottom=0;right=0;collapsible=0;dropTarget=0;fillColor=none;points=[[0,0.5],[1,0.5]];portConstraint=eastwest;strokeColor=inherit;fontSize=16;" parent="S2G6jcT_ubKv5hBvtlH8-11" vertex="1">
          <mxGeometry y="30" width="229" height="30" as="geometry" />
        </mxCell>
        <mxCell id="S2G6jcT_ubKv5hBvtlH8-13" value="Guid" style="shape=partialRectangle;html=1;whiteSpace=wrap;connectable=0;fillColor=none;top=0;left=0;bottom=0;right=0;overflow=hidden;pointerEvents=1;strokeColor=inherit;fontSize=16;" parent="S2G6jcT_ubKv5hBvtlH8-12" vertex="1">
          <mxGeometry width="101" height="30" as="geometry">
            <mxRectangle width="101" height="30" as="alternateBounds" />
          </mxGeometry>
        </mxCell>
        <mxCell id="S2G6jcT_ubKv5hBvtlH8-14" value="Id (PK)" style="shape=partialRectangle;html=1;whiteSpace=wrap;connectable=0;fillColor=none;top=0;left=0;bottom=0;right=0;align=left;spacingLeft=6;overflow=hidden;strokeColor=inherit;fontSize=16;" parent="S2G6jcT_ubKv5hBvtlH8-12" vertex="1">
          <mxGeometry x="101" width="128" height="30" as="geometry">
            <mxRectangle width="128" height="30" as="alternateBounds" />
          </mxGeometry>
        </mxCell>
        <mxCell id="S2G6jcT_ubKv5hBvtlH8-15" value="" style="shape=tableRow;horizontal=0;startSize=0;swimlaneHead=0;swimlaneBody=0;top=0;left=0;bottom=0;right=0;collapsible=0;dropTarget=0;fillColor=none;points=[[0,0.5],[1,0.5]];portConstraint=eastwest;strokeColor=inherit;fontSize=16;" parent="S2G6jcT_ubKv5hBvtlH8-11" vertex="1">
          <mxGeometry y="60" width="229" height="30" as="geometry" />
        </mxCell>
        <mxCell id="S2G6jcT_ubKv5hBvtlH8-16" value="Guid" style="shape=partialRectangle;html=1;whiteSpace=wrap;connectable=0;fillColor=none;top=0;left=0;bottom=0;right=0;overflow=hidden;strokeColor=inherit;fontSize=16;" parent="S2G6jcT_ubKv5hBvtlH8-15" vertex="1">
          <mxGeometry width="101" height="30" as="geometry">
            <mxRectangle width="101" height="30" as="alternateBounds" />
          </mxGeometry>
        </mxCell>
        <mxCell id="S2G6jcT_ubKv5hBvtlH8-17" value="CustomerID(FK)" style="shape=partialRectangle;html=1;whiteSpace=wrap;connectable=0;fillColor=none;top=0;left=0;bottom=0;right=0;align=left;spacingLeft=6;overflow=hidden;strokeColor=inherit;fontSize=16;" parent="S2G6jcT_ubKv5hBvtlH8-15" vertex="1">
          <mxGeometry x="101" width="128" height="30" as="geometry">
            <mxRectangle width="128" height="30" as="alternateBounds" />
          </mxGeometry>
        </mxCell>
        <mxCell id="S2G6jcT_ubKv5hBvtlH8-18" value="" style="shape=tableRow;horizontal=0;startSize=0;swimlaneHead=0;swimlaneBody=0;top=0;left=0;bottom=0;right=0;collapsible=0;dropTarget=0;fillColor=none;points=[[0,0.5],[1,0.5]];portConstraint=eastwest;strokeColor=inherit;fontSize=16;" parent="S2G6jcT_ubKv5hBvtlH8-11" vertex="1">
          <mxGeometry y="90" width="229" height="30" as="geometry" />
        </mxCell>
        <mxCell id="S2G6jcT_ubKv5hBvtlH8-19" value="Decimal" style="shape=partialRectangle;html=1;whiteSpace=wrap;connectable=0;fillColor=none;top=0;left=0;bottom=0;right=0;overflow=hidden;strokeColor=inherit;fontSize=16;" parent="S2G6jcT_ubKv5hBvtlH8-18" vertex="1">
          <mxGeometry width="101" height="30" as="geometry">
            <mxRectangle width="101" height="30" as="alternateBounds" />
          </mxGeometry>
        </mxCell>
        <mxCell id="S2G6jcT_ubKv5hBvtlH8-20" value="Value" style="shape=partialRectangle;html=1;whiteSpace=wrap;connectable=0;fillColor=none;top=0;left=0;bottom=0;right=0;align=left;spacingLeft=6;overflow=hidden;strokeColor=inherit;fontSize=16;" parent="S2G6jcT_ubKv5hBvtlH8-18" vertex="1">
          <mxGeometry x="101" width="128" height="30" as="geometry">
            <mxRectangle width="128" height="30" as="alternateBounds" />
          </mxGeometry>
        </mxCell>
        <mxCell id="S2G6jcT_ubKv5hBvtlH8-117" value="" style="shape=tableRow;horizontal=0;startSize=0;swimlaneHead=0;swimlaneBody=0;top=0;left=0;bottom=0;right=0;collapsible=0;dropTarget=0;fillColor=none;points=[[0,0.5],[1,0.5]];portConstraint=eastwest;strokeColor=inherit;fontSize=16;" parent="S2G6jcT_ubKv5hBvtlH8-11" vertex="1">
          <mxGeometry y="120" width="229" height="30" as="geometry" />
        </mxCell>
        <mxCell id="S2G6jcT_ubKv5hBvtlH8-118" value="DateTime" style="shape=partialRectangle;html=1;whiteSpace=wrap;connectable=0;fillColor=none;top=0;left=0;bottom=0;right=0;overflow=hidden;strokeColor=inherit;fontSize=16;" parent="S2G6jcT_ubKv5hBvtlH8-117" vertex="1">
          <mxGeometry width="101" height="30" as="geometry">
            <mxRectangle width="101" height="30" as="alternateBounds" />
          </mxGeometry>
        </mxCell>
        <mxCell id="S2G6jcT_ubKv5hBvtlH8-119" value="Date" style="shape=partialRectangle;html=1;whiteSpace=wrap;connectable=0;fillColor=none;top=0;left=0;bottom=0;right=0;align=left;spacingLeft=6;overflow=hidden;strokeColor=inherit;fontSize=16;" parent="S2G6jcT_ubKv5hBvtlH8-117" vertex="1">
          <mxGeometry x="101" width="128" height="30" as="geometry">
            <mxRectangle width="128" height="30" as="alternateBounds" />
          </mxGeometry>
        </mxCell>
        <mxCell id="S2G6jcT_ubKv5hBvtlH8-21" value="CustomerVehicle" style="shape=table;startSize=30;container=1;collapsible=0;childLayout=tableLayout;fixedRows=1;rowLines=0;fontStyle=0;strokeColor=default;fontSize=16;" parent="1" vertex="1">
          <mxGeometry x="-280" y="-520" width="180" height="150" as="geometry" />
        </mxCell>
        <mxCell id="S2G6jcT_ubKv5hBvtlH8-22" value="" style="shape=tableRow;horizontal=0;startSize=0;swimlaneHead=0;swimlaneBody=0;top=0;left=0;bottom=0;right=0;collapsible=0;dropTarget=0;fillColor=none;points=[[0,0.5],[1,0.5]];portConstraint=eastwest;strokeColor=inherit;fontSize=16;" parent="S2G6jcT_ubKv5hBvtlH8-21" vertex="1">
          <mxGeometry y="30" width="180" height="30" as="geometry" />
        </mxCell>
        <mxCell id="S2G6jcT_ubKv5hBvtlH8-23" value="Guid" style="shape=partialRectangle;html=1;whiteSpace=wrap;connectable=0;fillColor=none;top=0;left=0;bottom=0;right=0;overflow=hidden;pointerEvents=1;strokeColor=inherit;fontSize=16;" parent="S2G6jcT_ubKv5hBvtlH8-22" vertex="1">
          <mxGeometry width="60" height="30" as="geometry">
            <mxRectangle width="60" height="30" as="alternateBounds" />
          </mxGeometry>
        </mxCell>
        <mxCell id="S2G6jcT_ubKv5hBvtlH8-24" value="Id (PK)" style="shape=partialRectangle;html=1;whiteSpace=wrap;connectable=0;fillColor=none;top=0;left=0;bottom=0;right=0;align=left;spacingLeft=6;overflow=hidden;strokeColor=inherit;fontSize=16;" parent="S2G6jcT_ubKv5hBvtlH8-22" vertex="1">
          <mxGeometry x="60" width="120" height="30" as="geometry">
            <mxRectangle width="120" height="30" as="alternateBounds" />
          </mxGeometry>
        </mxCell>
        <mxCell id="S2G6jcT_ubKv5hBvtlH8-25" value="" style="shape=tableRow;horizontal=0;startSize=0;swimlaneHead=0;swimlaneBody=0;top=0;left=0;bottom=0;right=0;collapsible=0;dropTarget=0;fillColor=none;points=[[0,0.5],[1,0.5]];portConstraint=eastwest;strokeColor=inherit;fontSize=16;" parent="S2G6jcT_ubKv5hBvtlH8-21" vertex="1">
          <mxGeometry y="60" width="180" height="30" as="geometry" />
        </mxCell>
        <mxCell id="S2G6jcT_ubKv5hBvtlH8-26" value="Guid" style="shape=partialRectangle;html=1;whiteSpace=wrap;connectable=0;fillColor=none;top=0;left=0;bottom=0;right=0;overflow=hidden;strokeColor=inherit;fontSize=16;" parent="S2G6jcT_ubKv5hBvtlH8-25" vertex="1">
          <mxGeometry width="60" height="30" as="geometry">
            <mxRectangle width="60" height="30" as="alternateBounds" />
          </mxGeometry>
        </mxCell>
        <mxCell id="S2G6jcT_ubKv5hBvtlH8-27" value="CustomerID(FK)" style="shape=partialRectangle;html=1;whiteSpace=wrap;connectable=0;fillColor=none;top=0;left=0;bottom=0;right=0;align=left;spacingLeft=6;overflow=hidden;strokeColor=inherit;fontSize=16;" parent="S2G6jcT_ubKv5hBvtlH8-25" vertex="1">
          <mxGeometry x="60" width="120" height="30" as="geometry">
            <mxRectangle width="120" height="30" as="alternateBounds" />
          </mxGeometry>
        </mxCell>
        <mxCell id="S2G6jcT_ubKv5hBvtlH8-28" value="" style="shape=tableRow;horizontal=0;startSize=0;swimlaneHead=0;swimlaneBody=0;top=0;left=0;bottom=0;right=0;collapsible=0;dropTarget=0;fillColor=none;points=[[0,0.5],[1,0.5]];portConstraint=eastwest;strokeColor=inherit;fontSize=16;" parent="S2G6jcT_ubKv5hBvtlH8-21" vertex="1">
          <mxGeometry y="90" width="180" height="30" as="geometry" />
        </mxCell>
        <mxCell id="S2G6jcT_ubKv5hBvtlH8-29" value="Char" style="shape=partialRectangle;html=1;whiteSpace=wrap;connectable=0;fillColor=none;top=0;left=0;bottom=0;right=0;overflow=hidden;strokeColor=inherit;fontSize=16;" parent="S2G6jcT_ubKv5hBvtlH8-28" vertex="1">
          <mxGeometry width="60" height="30" as="geometry">
            <mxRectangle width="60" height="30" as="alternateBounds" />
          </mxGeometry>
        </mxCell>
        <mxCell id="S2G6jcT_ubKv5hBvtlH8-30" value="VehicleType" style="shape=partialRectangle;html=1;whiteSpace=wrap;connectable=0;fillColor=none;top=0;left=0;bottom=0;right=0;align=left;spacingLeft=6;overflow=hidden;strokeColor=inherit;fontSize=16;" parent="S2G6jcT_ubKv5hBvtlH8-28" vertex="1">
          <mxGeometry x="60" width="120" height="30" as="geometry">
            <mxRectangle width="120" height="30" as="alternateBounds" />
          </mxGeometry>
        </mxCell>
        <mxCell id="S2G6jcT_ubKv5hBvtlH8-120" value="" style="shape=tableRow;horizontal=0;startSize=0;swimlaneHead=0;swimlaneBody=0;top=0;left=0;bottom=0;right=0;collapsible=0;dropTarget=0;fillColor=none;points=[[0,0.5],[1,0.5]];portConstraint=eastwest;strokeColor=inherit;fontSize=16;" parent="S2G6jcT_ubKv5hBvtlH8-21" vertex="1">
          <mxGeometry y="120" width="180" height="30" as="geometry" />
        </mxCell>
        <mxCell id="S2G6jcT_ubKv5hBvtlH8-121" value="String" style="shape=partialRectangle;html=1;whiteSpace=wrap;connectable=0;fillColor=none;top=0;left=0;bottom=0;right=0;overflow=hidden;strokeColor=inherit;fontSize=16;" parent="S2G6jcT_ubKv5hBvtlH8-120" vertex="1">
          <mxGeometry width="60" height="30" as="geometry">
            <mxRectangle width="60" height="30" as="alternateBounds" />
          </mxGeometry>
        </mxCell>
        <mxCell id="S2G6jcT_ubKv5hBvtlH8-122" value="Plate" style="shape=partialRectangle;html=1;whiteSpace=wrap;connectable=0;fillColor=none;top=0;left=0;bottom=0;right=0;align=left;spacingLeft=6;overflow=hidden;strokeColor=inherit;fontSize=16;" parent="S2G6jcT_ubKv5hBvtlH8-120" vertex="1">
          <mxGeometry x="60" width="120" height="30" as="geometry">
            <mxRectangle width="120" height="30" as="alternateBounds" />
          </mxGeometry>
        </mxCell>
        <mxCell id="S2G6jcT_ubKv5hBvtlH8-31" value="Ticket" style="shape=table;startSize=30;container=1;collapsible=0;childLayout=tableLayout;fixedRows=1;rowLines=0;fontStyle=0;strokeColor=default;fontSize=16;" parent="1" vertex="1">
          <mxGeometry x="220" y="-770" width="310" height="210" as="geometry" />
        </mxCell>
        <mxCell id="S2G6jcT_ubKv5hBvtlH8-32" value="" style="shape=tableRow;horizontal=0;startSize=0;swimlaneHead=0;swimlaneBody=0;top=0;left=0;bottom=0;right=0;collapsible=0;dropTarget=0;fillColor=none;points=[[0,0.5],[1,0.5]];portConstraint=eastwest;strokeColor=inherit;fontSize=16;" parent="S2G6jcT_ubKv5hBvtlH8-31" vertex="1">
          <mxGeometry y="30" width="310" height="30" as="geometry" />
        </mxCell>
        <mxCell id="S2G6jcT_ubKv5hBvtlH8-33" value="Guid" style="shape=partialRectangle;html=1;whiteSpace=wrap;connectable=0;fillColor=none;top=0;left=0;bottom=0;right=0;overflow=hidden;pointerEvents=1;strokeColor=inherit;fontSize=16;" parent="S2G6jcT_ubKv5hBvtlH8-32" vertex="1">
          <mxGeometry width="80" height="30" as="geometry">
            <mxRectangle width="80" height="30" as="alternateBounds" />
          </mxGeometry>
        </mxCell>
        <mxCell id="S2G6jcT_ubKv5hBvtlH8-34" value="Id(PK)" style="shape=partialRectangle;html=1;whiteSpace=wrap;connectable=0;fillColor=none;top=0;left=0;bottom=0;right=0;align=left;spacingLeft=6;overflow=hidden;strokeColor=inherit;fontSize=16;" parent="S2G6jcT_ubKv5hBvtlH8-32" vertex="1">
          <mxGeometry x="80" width="230" height="30" as="geometry">
            <mxRectangle width="230" height="30" as="alternateBounds" />
          </mxGeometry>
        </mxCell>
        <mxCell id="S2G6jcT_ubKv5hBvtlH8-35" value="" style="shape=tableRow;horizontal=0;startSize=0;swimlaneHead=0;swimlaneBody=0;top=0;left=0;bottom=0;right=0;collapsible=0;dropTarget=0;fillColor=none;points=[[0,0.5],[1,0.5]];portConstraint=eastwest;strokeColor=inherit;fontSize=16;" parent="S2G6jcT_ubKv5hBvtlH8-31" vertex="1">
          <mxGeometry y="60" width="310" height="30" as="geometry" />
        </mxCell>
        <mxCell id="S2G6jcT_ubKv5hBvtlH8-36" value="Guid" style="shape=partialRectangle;html=1;whiteSpace=wrap;connectable=0;fillColor=none;top=0;left=0;bottom=0;right=0;overflow=hidden;strokeColor=inherit;fontSize=16;" parent="S2G6jcT_ubKv5hBvtlH8-35" vertex="1">
          <mxGeometry width="80" height="30" as="geometry">
            <mxRectangle width="80" height="30" as="alternateBounds" />
          </mxGeometry>
        </mxCell>
        <mxCell id="S2G6jcT_ubKv5hBvtlH8-37" value="VehicleID(FK)" style="shape=partialRectangle;html=1;whiteSpace=wrap;connectable=0;fillColor=none;top=0;left=0;bottom=0;right=0;align=left;spacingLeft=6;overflow=hidden;strokeColor=inherit;fontSize=16;" parent="S2G6jcT_ubKv5hBvtlH8-35" vertex="1">
          <mxGeometry x="80" width="230" height="30" as="geometry">
            <mxRectangle width="230" height="30" as="alternateBounds" />
          </mxGeometry>
        </mxCell>
        <mxCell id="S2G6jcT_ubKv5hBvtlH8-38" value="" style="shape=tableRow;horizontal=0;startSize=0;swimlaneHead=0;swimlaneBody=0;top=0;left=0;bottom=0;right=0;collapsible=0;dropTarget=0;fillColor=none;points=[[0,0.5],[1,0.5]];portConstraint=eastwest;strokeColor=inherit;fontSize=16;" parent="S2G6jcT_ubKv5hBvtlH8-31" vertex="1">
          <mxGeometry y="90" width="310" height="30" as="geometry" />
        </mxCell>
        <mxCell id="S2G6jcT_ubKv5hBvtlH8-39" value="Guid" style="shape=partialRectangle;html=1;whiteSpace=wrap;connectable=0;fillColor=none;top=0;left=0;bottom=0;right=0;overflow=hidden;strokeColor=inherit;fontSize=16;" parent="S2G6jcT_ubKv5hBvtlH8-38" vertex="1">
          <mxGeometry width="80" height="30" as="geometry">
            <mxRectangle width="80" height="30" as="alternateBounds" />
          </mxGeometry>
        </mxCell>
        <mxCell id="S2G6jcT_ubKv5hBvtlH8-40" value="ParkingSpaceID(FK)" style="shape=partialRectangle;html=1;whiteSpace=wrap;connectable=0;fillColor=none;top=0;left=0;bottom=0;right=0;align=left;spacingLeft=6;overflow=hidden;strokeColor=inherit;fontSize=16;" parent="S2G6jcT_ubKv5hBvtlH8-38" vertex="1">
          <mxGeometry x="80" width="230" height="30" as="geometry">
            <mxRectangle width="230" height="30" as="alternateBounds" />
          </mxGeometry>
        </mxCell>
        <mxCell id="S2G6jcT_ubKv5hBvtlH8-123" value="" style="shape=tableRow;horizontal=0;startSize=0;swimlaneHead=0;swimlaneBody=0;top=0;left=0;bottom=0;right=0;collapsible=0;dropTarget=0;fillColor=none;points=[[0,0.5],[1,0.5]];portConstraint=eastwest;strokeColor=inherit;fontSize=16;" parent="S2G6jcT_ubKv5hBvtlH8-31" vertex="1">
          <mxGeometry y="120" width="310" height="30" as="geometry" />
        </mxCell>
        <mxCell id="S2G6jcT_ubKv5hBvtlH8-124" value="DateTime" style="shape=partialRectangle;html=1;whiteSpace=wrap;connectable=0;fillColor=none;top=0;left=0;bottom=0;right=0;overflow=hidden;strokeColor=inherit;fontSize=16;" parent="S2G6jcT_ubKv5hBvtlH8-123" vertex="1">
          <mxGeometry width="80" height="30" as="geometry">
            <mxRectangle width="80" height="30" as="alternateBounds" />
          </mxGeometry>
        </mxCell>
        <mxCell id="S2G6jcT_ubKv5hBvtlH8-125" value="StartDate" style="shape=partialRectangle;html=1;whiteSpace=wrap;connectable=0;fillColor=none;top=0;left=0;bottom=0;right=0;align=left;spacingLeft=6;overflow=hidden;strokeColor=inherit;fontSize=16;" parent="S2G6jcT_ubKv5hBvtlH8-123" vertex="1">
          <mxGeometry x="80" width="230" height="30" as="geometry">
            <mxRectangle width="230" height="30" as="alternateBounds" />
          </mxGeometry>
        </mxCell>
        <mxCell id="S2G6jcT_ubKv5hBvtlH8-126" value="" style="shape=tableRow;horizontal=0;startSize=0;swimlaneHead=0;swimlaneBody=0;top=0;left=0;bottom=0;right=0;collapsible=0;dropTarget=0;fillColor=none;points=[[0,0.5],[1,0.5]];portConstraint=eastwest;strokeColor=inherit;fontSize=16;" parent="S2G6jcT_ubKv5hBvtlH8-31" vertex="1">
          <mxGeometry y="150" width="310" height="30" as="geometry" />
        </mxCell>
        <mxCell id="S2G6jcT_ubKv5hBvtlH8-127" value="DateTime" style="shape=partialRectangle;html=1;whiteSpace=wrap;connectable=0;fillColor=none;top=0;left=0;bottom=0;right=0;overflow=hidden;strokeColor=inherit;fontSize=16;" parent="S2G6jcT_ubKv5hBvtlH8-126" vertex="1">
          <mxGeometry width="80" height="30" as="geometry">
            <mxRectangle width="80" height="30" as="alternateBounds" />
          </mxGeometry>
        </mxCell>
        <mxCell id="S2G6jcT_ubKv5hBvtlH8-128" value="EndDate" style="shape=partialRectangle;html=1;whiteSpace=wrap;connectable=0;fillColor=none;top=0;left=0;bottom=0;right=0;align=left;spacingLeft=6;overflow=hidden;strokeColor=inherit;fontSize=16;" parent="S2G6jcT_ubKv5hBvtlH8-126" vertex="1">
          <mxGeometry x="80" width="230" height="30" as="geometry">
            <mxRectangle width="230" height="30" as="alternateBounds" />
          </mxGeometry>
        </mxCell>
        <mxCell id="S2G6jcT_ubKv5hBvtlH8-129" value="" style="shape=tableRow;horizontal=0;startSize=0;swimlaneHead=0;swimlaneBody=0;top=0;left=0;bottom=0;right=0;collapsible=0;dropTarget=0;fillColor=none;points=[[0,0.5],[1,0.5]];portConstraint=eastwest;strokeColor=inherit;fontSize=16;" parent="S2G6jcT_ubKv5hBvtlH8-31" vertex="1">
          <mxGeometry y="180" width="310" height="30" as="geometry" />
        </mxCell>
        <mxCell id="S2G6jcT_ubKv5hBvtlH8-130" value="Decimal" style="shape=partialRectangle;html=1;whiteSpace=wrap;connectable=0;fillColor=none;top=0;left=0;bottom=0;right=0;overflow=hidden;strokeColor=inherit;fontSize=16;" parent="S2G6jcT_ubKv5hBvtlH8-129" vertex="1">
          <mxGeometry width="80" height="30" as="geometry">
            <mxRectangle width="80" height="30" as="alternateBounds" />
          </mxGeometry>
        </mxCell>
        <mxCell id="S2G6jcT_ubKv5hBvtlH8-131" value="Price" style="shape=partialRectangle;html=1;whiteSpace=wrap;connectable=0;fillColor=none;top=0;left=0;bottom=0;right=0;align=left;spacingLeft=6;overflow=hidden;strokeColor=inherit;fontSize=16;" parent="S2G6jcT_ubKv5hBvtlH8-129" vertex="1">
          <mxGeometry x="80" width="230" height="30" as="geometry">
            <mxRectangle width="230" height="30" as="alternateBounds" />
          </mxGeometry>
        </mxCell>
        <mxCell id="S2G6jcT_ubKv5hBvtlH8-51" value="ParkingSpace" style="shape=table;startSize=30;container=1;collapsible=0;childLayout=tableLayout;fixedRows=1;rowLines=0;fontStyle=0;strokeColor=default;fontSize=16;" parent="1" vertex="1">
          <mxGeometry x="-350" y="-930" width="274" height="180" as="geometry" />
        </mxCell>
        <mxCell id="S2G6jcT_ubKv5hBvtlH8-52" value="" style="shape=tableRow;horizontal=0;startSize=0;swimlaneHead=0;swimlaneBody=0;top=0;left=0;bottom=0;right=0;collapsible=0;dropTarget=0;fillColor=none;points=[[0,0.5],[1,0.5]];portConstraint=eastwest;strokeColor=inherit;fontSize=16;" parent="S2G6jcT_ubKv5hBvtlH8-51" vertex="1">
          <mxGeometry y="30" width="274" height="30" as="geometry" />
        </mxCell>
        <mxCell id="S2G6jcT_ubKv5hBvtlH8-53" value="Guid" style="shape=partialRectangle;html=1;whiteSpace=wrap;connectable=0;fillColor=none;top=0;left=0;bottom=0;right=0;overflow=hidden;pointerEvents=1;strokeColor=inherit;fontSize=16;" parent="S2G6jcT_ubKv5hBvtlH8-52" vertex="1">
          <mxGeometry width="61" height="30" as="geometry">
            <mxRectangle width="61" height="30" as="alternateBounds" />
          </mxGeometry>
        </mxCell>
        <mxCell id="S2G6jcT_ubKv5hBvtlH8-54" value="Id(PK)" style="shape=partialRectangle;html=1;whiteSpace=wrap;connectable=0;fillColor=none;top=0;left=0;bottom=0;right=0;align=left;spacingLeft=6;overflow=hidden;strokeColor=inherit;fontSize=16;" parent="S2G6jcT_ubKv5hBvtlH8-52" vertex="1">
          <mxGeometry x="61" width="213" height="30" as="geometry">
            <mxRectangle width="213" height="30" as="alternateBounds" />
          </mxGeometry>
        </mxCell>
        <mxCell id="S2G6jcT_ubKv5hBvtlH8-55" value="" style="shape=tableRow;horizontal=0;startSize=0;swimlaneHead=0;swimlaneBody=0;top=0;left=0;bottom=0;right=0;collapsible=0;dropTarget=0;fillColor=none;points=[[0,0.5],[1,0.5]];portConstraint=eastwest;strokeColor=inherit;fontSize=16;" parent="S2G6jcT_ubKv5hBvtlH8-51" vertex="1">
          <mxGeometry y="60" width="274" height="30" as="geometry" />
        </mxCell>
        <mxCell id="S2G6jcT_ubKv5hBvtlH8-56" value="Guid" style="shape=partialRectangle;html=1;whiteSpace=wrap;connectable=0;fillColor=none;top=0;left=0;bottom=0;right=0;overflow=hidden;strokeColor=inherit;fontSize=16;" parent="S2G6jcT_ubKv5hBvtlH8-55" vertex="1">
          <mxGeometry width="61" height="30" as="geometry">
            <mxRectangle width="61" height="30" as="alternateBounds" />
          </mxGeometry>
        </mxCell>
        <mxCell id="S2G6jcT_ubKv5hBvtlH8-57" value="FloorID(FK)" style="shape=partialRectangle;html=1;whiteSpace=wrap;connectable=0;fillColor=none;top=0;left=0;bottom=0;right=0;align=left;spacingLeft=6;overflow=hidden;strokeColor=inherit;fontSize=16;" parent="S2G6jcT_ubKv5hBvtlH8-55" vertex="1">
          <mxGeometry x="61" width="213" height="30" as="geometry">
            <mxRectangle width="213" height="30" as="alternateBounds" />
          </mxGeometry>
        </mxCell>
        <mxCell id="S2G6jcT_ubKv5hBvtlH8-58" value="" style="shape=tableRow;horizontal=0;startSize=0;swimlaneHead=0;swimlaneBody=0;top=0;left=0;bottom=0;right=0;collapsible=0;dropTarget=0;fillColor=none;points=[[0,0.5],[1,0.5]];portConstraint=eastwest;strokeColor=inherit;fontSize=16;" parent="S2G6jcT_ubKv5hBvtlH8-51" vertex="1">
          <mxGeometry y="90" width="274" height="30" as="geometry" />
        </mxCell>
        <mxCell id="S2G6jcT_ubKv5hBvtlH8-59" value="Char" style="shape=partialRectangle;html=1;whiteSpace=wrap;connectable=0;fillColor=none;top=0;left=0;bottom=0;right=0;overflow=hidden;strokeColor=inherit;fontSize=16;" parent="S2G6jcT_ubKv5hBvtlH8-58" vertex="1">
          <mxGeometry width="61" height="30" as="geometry">
            <mxRectangle width="61" height="30" as="alternateBounds" />
          </mxGeometry>
        </mxCell>
        <mxCell id="S2G6jcT_ubKv5hBvtlH8-60" value="Row" style="shape=partialRectangle;html=1;whiteSpace=wrap;connectable=0;fillColor=none;top=0;left=0;bottom=0;right=0;align=left;spacingLeft=6;overflow=hidden;strokeColor=inherit;fontSize=16;" parent="S2G6jcT_ubKv5hBvtlH8-58" vertex="1">
          <mxGeometry x="61" width="213" height="30" as="geometry">
            <mxRectangle width="213" height="30" as="alternateBounds" />
          </mxGeometry>
        </mxCell>
        <mxCell id="J0b3ggR-wFOqmGJ_Wg51-1" value="" style="shape=tableRow;horizontal=0;startSize=0;swimlaneHead=0;swimlaneBody=0;top=0;left=0;bottom=0;right=0;collapsible=0;dropTarget=0;fillColor=none;points=[[0,0.5],[1,0.5]];portConstraint=eastwest;strokeColor=inherit;fontSize=16;" vertex="1" parent="S2G6jcT_ubKv5hBvtlH8-51">
          <mxGeometry y="120" width="274" height="30" as="geometry" />
        </mxCell>
        <mxCell id="J0b3ggR-wFOqmGJ_Wg51-2" value="String" style="shape=partialRectangle;html=1;whiteSpace=wrap;connectable=0;fillColor=none;top=0;left=0;bottom=0;right=0;overflow=hidden;strokeColor=inherit;fontSize=16;" vertex="1" parent="J0b3ggR-wFOqmGJ_Wg51-1">
          <mxGeometry width="61" height="30" as="geometry">
            <mxRectangle width="61" height="30" as="alternateBounds" />
          </mxGeometry>
        </mxCell>
        <mxCell id="J0b3ggR-wFOqmGJ_Wg51-3" value="Column" style="shape=partialRectangle;html=1;whiteSpace=wrap;connectable=0;fillColor=none;top=0;left=0;bottom=0;right=0;align=left;spacingLeft=6;overflow=hidden;strokeColor=inherit;fontSize=16;" vertex="1" parent="J0b3ggR-wFOqmGJ_Wg51-1">
          <mxGeometry x="61" width="213" height="30" as="geometry">
            <mxRectangle width="213" height="30" as="alternateBounds" />
          </mxGeometry>
        </mxCell>
        <mxCell id="J0b3ggR-wFOqmGJ_Wg51-4" value="" style="shape=tableRow;horizontal=0;startSize=0;swimlaneHead=0;swimlaneBody=0;top=0;left=0;bottom=0;right=0;collapsible=0;dropTarget=0;fillColor=none;points=[[0,0.5],[1,0.5]];portConstraint=eastwest;strokeColor=inherit;fontSize=16;" vertex="1" parent="S2G6jcT_ubKv5hBvtlH8-51">
          <mxGeometry y="150" width="274" height="30" as="geometry" />
        </mxCell>
        <mxCell id="J0b3ggR-wFOqmGJ_Wg51-5" value="Char" style="shape=partialRectangle;html=1;whiteSpace=wrap;connectable=0;fillColor=none;top=0;left=0;bottom=0;right=0;overflow=hidden;strokeColor=inherit;fontSize=16;" vertex="1" parent="J0b3ggR-wFOqmGJ_Wg51-4">
          <mxGeometry width="61" height="30" as="geometry">
            <mxRectangle width="61" height="30" as="alternateBounds" />
          </mxGeometry>
        </mxCell>
        <mxCell id="J0b3ggR-wFOqmGJ_Wg51-6" value="VehicleType" style="shape=partialRectangle;html=1;whiteSpace=wrap;connectable=0;fillColor=none;top=0;left=0;bottom=0;right=0;align=left;spacingLeft=6;overflow=hidden;strokeColor=inherit;fontSize=16;" vertex="1" parent="J0b3ggR-wFOqmGJ_Wg51-4">
          <mxGeometry x="61" width="213" height="30" as="geometry">
            <mxRectangle width="213" height="30" as="alternateBounds" />
          </mxGeometry>
        </mxCell>
        <mxCell id="S2G6jcT_ubKv5hBvtlH8-61" value="Floor" style="shape=table;startSize=30;container=1;collapsible=0;childLayout=tableLayout;fixedRows=1;rowLines=0;fontStyle=0;strokeColor=default;fontSize=16;" parent="1" vertex="1">
          <mxGeometry x="-660" y="-900" width="180" height="120" as="geometry" />
        </mxCell>
        <mxCell id="S2G6jcT_ubKv5hBvtlH8-62" value="" style="shape=tableRow;horizontal=0;startSize=0;swimlaneHead=0;swimlaneBody=0;top=0;left=0;bottom=0;right=0;collapsible=0;dropTarget=0;fillColor=none;points=[[0,0.5],[1,0.5]];portConstraint=eastwest;strokeColor=inherit;fontSize=16;" parent="S2G6jcT_ubKv5hBvtlH8-61" vertex="1">
          <mxGeometry y="30" width="180" height="30" as="geometry" />
        </mxCell>
        <mxCell id="S2G6jcT_ubKv5hBvtlH8-63" value="Guid" style="shape=partialRectangle;html=1;whiteSpace=wrap;connectable=0;fillColor=none;top=0;left=0;bottom=0;right=0;overflow=hidden;pointerEvents=1;strokeColor=inherit;fontSize=16;" parent="S2G6jcT_ubKv5hBvtlH8-62" vertex="1">
          <mxGeometry width="50" height="30" as="geometry">
            <mxRectangle width="50" height="30" as="alternateBounds" />
          </mxGeometry>
        </mxCell>
        <mxCell id="S2G6jcT_ubKv5hBvtlH8-64" value="Id(PK)" style="shape=partialRectangle;html=1;whiteSpace=wrap;connectable=0;fillColor=none;top=0;left=0;bottom=0;right=0;align=left;spacingLeft=6;overflow=hidden;strokeColor=inherit;fontSize=16;" parent="S2G6jcT_ubKv5hBvtlH8-62" vertex="1">
          <mxGeometry x="50" width="130" height="30" as="geometry">
            <mxRectangle width="130" height="30" as="alternateBounds" />
          </mxGeometry>
        </mxCell>
        <mxCell id="S2G6jcT_ubKv5hBvtlH8-65" value="" style="shape=tableRow;horizontal=0;startSize=0;swimlaneHead=0;swimlaneBody=0;top=0;left=0;bottom=0;right=0;collapsible=0;dropTarget=0;fillColor=none;points=[[0,0.5],[1,0.5]];portConstraint=eastwest;strokeColor=inherit;fontSize=16;" parent="S2G6jcT_ubKv5hBvtlH8-61" vertex="1">
          <mxGeometry y="60" width="180" height="30" as="geometry" />
        </mxCell>
        <mxCell id="S2G6jcT_ubKv5hBvtlH8-66" value="Guid" style="shape=partialRectangle;html=1;whiteSpace=wrap;connectable=0;fillColor=none;top=0;left=0;bottom=0;right=0;overflow=hidden;strokeColor=inherit;fontSize=16;" parent="S2G6jcT_ubKv5hBvtlH8-65" vertex="1">
          <mxGeometry width="50" height="30" as="geometry">
            <mxRectangle width="50" height="30" as="alternateBounds" />
          </mxGeometry>
        </mxCell>
        <mxCell id="S2G6jcT_ubKv5hBvtlH8-67" value="ParkId(FK)" style="shape=partialRectangle;html=1;whiteSpace=wrap;connectable=0;fillColor=none;top=0;left=0;bottom=0;right=0;align=left;spacingLeft=6;overflow=hidden;strokeColor=inherit;fontSize=16;" parent="S2G6jcT_ubKv5hBvtlH8-65" vertex="1">
          <mxGeometry x="50" width="130" height="30" as="geometry">
            <mxRectangle width="130" height="30" as="alternateBounds" />
          </mxGeometry>
        </mxCell>
        <mxCell id="S2G6jcT_ubKv5hBvtlH8-68" value="" style="shape=tableRow;horizontal=0;startSize=0;swimlaneHead=0;swimlaneBody=0;top=0;left=0;bottom=0;right=0;collapsible=0;dropTarget=0;fillColor=none;points=[[0,0.5],[1,0.5]];portConstraint=eastwest;strokeColor=inherit;fontSize=16;" parent="S2G6jcT_ubKv5hBvtlH8-61" vertex="1">
          <mxGeometry y="90" width="180" height="30" as="geometry" />
        </mxCell>
        <mxCell id="S2G6jcT_ubKv5hBvtlH8-69" value="Int" style="shape=partialRectangle;html=1;whiteSpace=wrap;connectable=0;fillColor=none;top=0;left=0;bottom=0;right=0;overflow=hidden;strokeColor=inherit;fontSize=16;" parent="S2G6jcT_ubKv5hBvtlH8-68" vertex="1">
          <mxGeometry width="50" height="30" as="geometry">
            <mxRectangle width="50" height="30" as="alternateBounds" />
          </mxGeometry>
        </mxCell>
        <mxCell id="S2G6jcT_ubKv5hBvtlH8-70" value="Number" style="shape=partialRectangle;html=1;whiteSpace=wrap;connectable=0;fillColor=none;top=0;left=0;bottom=0;right=0;align=left;spacingLeft=6;overflow=hidden;strokeColor=inherit;fontSize=16;" parent="S2G6jcT_ubKv5hBvtlH8-68" vertex="1">
          <mxGeometry x="50" width="130" height="30" as="geometry">
            <mxRectangle width="130" height="30" as="alternateBounds" />
          </mxGeometry>
        </mxCell>
        <mxCell id="S2G6jcT_ubKv5hBvtlH8-71" value="Park" style="shape=table;startSize=30;container=1;collapsible=0;childLayout=tableLayout;fixedRows=1;rowLines=0;fontStyle=0;strokeColor=default;fontSize=16;" parent="1" vertex="1">
          <mxGeometry x="-945.5" y="-885" width="180" height="90" as="geometry" />
        </mxCell>
        <mxCell id="S2G6jcT_ubKv5hBvtlH8-72" value="" style="shape=tableRow;horizontal=0;startSize=0;swimlaneHead=0;swimlaneBody=0;top=0;left=0;bottom=0;right=0;collapsible=0;dropTarget=0;fillColor=none;points=[[0,0.5],[1,0.5]];portConstraint=eastwest;strokeColor=inherit;fontSize=16;" parent="S2G6jcT_ubKv5hBvtlH8-71" vertex="1">
          <mxGeometry y="30" width="180" height="30" as="geometry" />
        </mxCell>
        <mxCell id="S2G6jcT_ubKv5hBvtlH8-73" value="Guid" style="shape=partialRectangle;html=1;whiteSpace=wrap;connectable=0;fillColor=none;top=0;left=0;bottom=0;right=0;overflow=hidden;pointerEvents=1;strokeColor=inherit;fontSize=16;" parent="S2G6jcT_ubKv5hBvtlH8-72" vertex="1">
          <mxGeometry width="60" height="30" as="geometry">
            <mxRectangle width="60" height="30" as="alternateBounds" />
          </mxGeometry>
        </mxCell>
        <mxCell id="S2G6jcT_ubKv5hBvtlH8-74" value="Id(PK)" style="shape=partialRectangle;html=1;whiteSpace=wrap;connectable=0;fillColor=none;top=0;left=0;bottom=0;right=0;align=left;spacingLeft=6;overflow=hidden;strokeColor=inherit;fontSize=16;" parent="S2G6jcT_ubKv5hBvtlH8-72" vertex="1">
          <mxGeometry x="60" width="120" height="30" as="geometry">
            <mxRectangle width="120" height="30" as="alternateBounds" />
          </mxGeometry>
        </mxCell>
        <mxCell id="S2G6jcT_ubKv5hBvtlH8-75" value="" style="shape=tableRow;horizontal=0;startSize=0;swimlaneHead=0;swimlaneBody=0;top=0;left=0;bottom=0;right=0;collapsible=0;dropTarget=0;fillColor=none;points=[[0,0.5],[1,0.5]];portConstraint=eastwest;strokeColor=inherit;fontSize=16;" parent="S2G6jcT_ubKv5hBvtlH8-71" vertex="1">
          <mxGeometry y="60" width="180" height="30" as="geometry" />
        </mxCell>
        <mxCell id="S2G6jcT_ubKv5hBvtlH8-76" value="String" style="shape=partialRectangle;html=1;whiteSpace=wrap;connectable=0;fillColor=none;top=0;left=0;bottom=0;right=0;overflow=hidden;strokeColor=inherit;fontSize=16;" parent="S2G6jcT_ubKv5hBvtlH8-75" vertex="1">
          <mxGeometry width="60" height="30" as="geometry">
            <mxRectangle width="60" height="30" as="alternateBounds" />
          </mxGeometry>
        </mxCell>
        <mxCell id="S2G6jcT_ubKv5hBvtlH8-77" value="Name" style="shape=partialRectangle;html=1;whiteSpace=wrap;connectable=0;fillColor=none;top=0;left=0;bottom=0;right=0;align=left;spacingLeft=6;overflow=hidden;strokeColor=inherit;fontSize=16;" parent="S2G6jcT_ubKv5hBvtlH8-75" vertex="1">
          <mxGeometry x="60" width="120" height="30" as="geometry">
            <mxRectangle width="120" height="30" as="alternateBounds" />
          </mxGeometry>
        </mxCell>
        <mxCell id="S2G6jcT_ubKv5hBvtlH8-132" value="Permit" style="shape=table;startSize=30;container=1;collapsible=0;childLayout=tableLayout;fixedRows=1;rowLines=0;fontStyle=0;strokeColor=default;fontSize=16;" parent="1" vertex="1">
          <mxGeometry x="410" y="-410" width="250" height="240" as="geometry" />
        </mxCell>
        <mxCell id="S2G6jcT_ubKv5hBvtlH8-133" value="" style="shape=tableRow;horizontal=0;startSize=0;swimlaneHead=0;swimlaneBody=0;top=0;left=0;bottom=0;right=0;collapsible=0;dropTarget=0;fillColor=none;points=[[0,0.5],[1,0.5]];portConstraint=eastwest;strokeColor=inherit;fontSize=16;" parent="S2G6jcT_ubKv5hBvtlH8-132" vertex="1">
          <mxGeometry y="30" width="250" height="30" as="geometry" />
        </mxCell>
        <mxCell id="S2G6jcT_ubKv5hBvtlH8-134" value="Guid" style="shape=partialRectangle;html=1;whiteSpace=wrap;connectable=0;fillColor=none;top=0;left=0;bottom=0;right=0;overflow=hidden;pointerEvents=1;strokeColor=inherit;fontSize=16;" parent="S2G6jcT_ubKv5hBvtlH8-133" vertex="1">
          <mxGeometry width="80" height="30" as="geometry">
            <mxRectangle width="80" height="30" as="alternateBounds" />
          </mxGeometry>
        </mxCell>
        <mxCell id="S2G6jcT_ubKv5hBvtlH8-135" value="Id(PK)" style="shape=partialRectangle;html=1;whiteSpace=wrap;connectable=0;fillColor=none;top=0;left=0;bottom=0;right=0;align=left;spacingLeft=6;overflow=hidden;strokeColor=inherit;fontSize=16;" parent="S2G6jcT_ubKv5hBvtlH8-133" vertex="1">
          <mxGeometry x="80" width="170" height="30" as="geometry">
            <mxRectangle width="170" height="30" as="alternateBounds" />
          </mxGeometry>
        </mxCell>
        <mxCell id="S2G6jcT_ubKv5hBvtlH8-136" value="" style="shape=tableRow;horizontal=0;startSize=0;swimlaneHead=0;swimlaneBody=0;top=0;left=0;bottom=0;right=0;collapsible=0;dropTarget=0;fillColor=none;points=[[0,0.5],[1,0.5]];portConstraint=eastwest;strokeColor=inherit;fontSize=16;" parent="S2G6jcT_ubKv5hBvtlH8-132" vertex="1">
          <mxGeometry y="60" width="250" height="30" as="geometry" />
        </mxCell>
        <mxCell id="S2G6jcT_ubKv5hBvtlH8-137" value="Guid" style="shape=partialRectangle;html=1;whiteSpace=wrap;connectable=0;fillColor=none;top=0;left=0;bottom=0;right=0;overflow=hidden;strokeColor=inherit;fontSize=16;" parent="S2G6jcT_ubKv5hBvtlH8-136" vertex="1">
          <mxGeometry width="80" height="30" as="geometry">
            <mxRectangle width="80" height="30" as="alternateBounds" />
          </mxGeometry>
        </mxCell>
        <mxCell id="S2G6jcT_ubKv5hBvtlH8-138" value="VehicleID(FK)" style="shape=partialRectangle;html=1;whiteSpace=wrap;connectable=0;fillColor=none;top=0;left=0;bottom=0;right=0;align=left;spacingLeft=6;overflow=hidden;strokeColor=inherit;fontSize=16;" parent="S2G6jcT_ubKv5hBvtlH8-136" vertex="1">
          <mxGeometry x="80" width="170" height="30" as="geometry">
            <mxRectangle width="170" height="30" as="alternateBounds" />
          </mxGeometry>
        </mxCell>
        <mxCell id="S2G6jcT_ubKv5hBvtlH8-139" value="" style="shape=tableRow;horizontal=0;startSize=0;swimlaneHead=0;swimlaneBody=0;top=0;left=0;bottom=0;right=0;collapsible=0;dropTarget=0;fillColor=none;points=[[0,0.5],[1,0.5]];portConstraint=eastwest;strokeColor=inherit;fontSize=16;" parent="S2G6jcT_ubKv5hBvtlH8-132" vertex="1">
          <mxGeometry y="90" width="250" height="30" as="geometry" />
        </mxCell>
        <mxCell id="S2G6jcT_ubKv5hBvtlH8-140" value="Guid" style="shape=partialRectangle;html=1;whiteSpace=wrap;connectable=0;fillColor=none;top=0;left=0;bottom=0;right=0;overflow=hidden;strokeColor=inherit;fontSize=16;" parent="S2G6jcT_ubKv5hBvtlH8-139" vertex="1">
          <mxGeometry width="80" height="30" as="geometry">
            <mxRectangle width="80" height="30" as="alternateBounds" />
          </mxGeometry>
        </mxCell>
        <mxCell id="S2G6jcT_ubKv5hBvtlH8-141" value="ParkingSpaceID(FK)" style="shape=partialRectangle;html=1;whiteSpace=wrap;connectable=0;fillColor=none;top=0;left=0;bottom=0;right=0;align=left;spacingLeft=6;overflow=hidden;strokeColor=inherit;fontSize=16;" parent="S2G6jcT_ubKv5hBvtlH8-139" vertex="1">
          <mxGeometry x="80" width="170" height="30" as="geometry">
            <mxRectangle width="170" height="30" as="alternateBounds" />
          </mxGeometry>
        </mxCell>
        <mxCell id="S2G6jcT_ubKv5hBvtlH8-142" value="" style="shape=tableRow;horizontal=0;startSize=0;swimlaneHead=0;swimlaneBody=0;top=0;left=0;bottom=0;right=0;collapsible=0;dropTarget=0;fillColor=none;points=[[0,0.5],[1,0.5]];portConstraint=eastwest;strokeColor=inherit;fontSize=16;" parent="S2G6jcT_ubKv5hBvtlH8-132" vertex="1">
          <mxGeometry y="120" width="250" height="30" as="geometry" />
        </mxCell>
        <mxCell id="S2G6jcT_ubKv5hBvtlH8-143" value="DateTime" style="shape=partialRectangle;html=1;whiteSpace=wrap;connectable=0;fillColor=none;top=0;left=0;bottom=0;right=0;overflow=hidden;strokeColor=inherit;fontSize=16;" parent="S2G6jcT_ubKv5hBvtlH8-142" vertex="1">
          <mxGeometry width="80" height="30" as="geometry">
            <mxRectangle width="80" height="30" as="alternateBounds" />
          </mxGeometry>
        </mxCell>
        <mxCell id="S2G6jcT_ubKv5hBvtlH8-144" value="StartDate" style="shape=partialRectangle;html=1;whiteSpace=wrap;connectable=0;fillColor=none;top=0;left=0;bottom=0;right=0;align=left;spacingLeft=6;overflow=hidden;strokeColor=inherit;fontSize=16;" parent="S2G6jcT_ubKv5hBvtlH8-142" vertex="1">
          <mxGeometry x="80" width="170" height="30" as="geometry">
            <mxRectangle width="170" height="30" as="alternateBounds" />
          </mxGeometry>
        </mxCell>
        <mxCell id="S2G6jcT_ubKv5hBvtlH8-145" value="" style="shape=tableRow;horizontal=0;startSize=0;swimlaneHead=0;swimlaneBody=0;top=0;left=0;bottom=0;right=0;collapsible=0;dropTarget=0;fillColor=none;points=[[0,0.5],[1,0.5]];portConstraint=eastwest;strokeColor=inherit;fontSize=16;" parent="S2G6jcT_ubKv5hBvtlH8-132" vertex="1">
          <mxGeometry y="150" width="250" height="30" as="geometry" />
        </mxCell>
        <mxCell id="S2G6jcT_ubKv5hBvtlH8-146" value="DateTime" style="shape=partialRectangle;html=1;whiteSpace=wrap;connectable=0;fillColor=none;top=0;left=0;bottom=0;right=0;overflow=hidden;strokeColor=inherit;fontSize=16;" parent="S2G6jcT_ubKv5hBvtlH8-145" vertex="1">
          <mxGeometry width="80" height="30" as="geometry">
            <mxRectangle width="80" height="30" as="alternateBounds" />
          </mxGeometry>
        </mxCell>
        <mxCell id="S2G6jcT_ubKv5hBvtlH8-147" value="EndDate" style="shape=partialRectangle;html=1;whiteSpace=wrap;connectable=0;fillColor=none;top=0;left=0;bottom=0;right=0;align=left;spacingLeft=6;overflow=hidden;strokeColor=inherit;fontSize=16;" parent="S2G6jcT_ubKv5hBvtlH8-145" vertex="1">
          <mxGeometry x="80" width="170" height="30" as="geometry">
            <mxRectangle width="170" height="30" as="alternateBounds" />
          </mxGeometry>
        </mxCell>
        <mxCell id="S2G6jcT_ubKv5hBvtlH8-148" value="" style="shape=tableRow;horizontal=0;startSize=0;swimlaneHead=0;swimlaneBody=0;top=0;left=0;bottom=0;right=0;collapsible=0;dropTarget=0;fillColor=none;points=[[0,0.5],[1,0.5]];portConstraint=eastwest;strokeColor=inherit;fontSize=16;" parent="S2G6jcT_ubKv5hBvtlH8-132" vertex="1">
          <mxGeometry y="180" width="250" height="30" as="geometry" />
        </mxCell>
        <mxCell id="S2G6jcT_ubKv5hBvtlH8-149" value="Decimal" style="shape=partialRectangle;html=1;whiteSpace=wrap;connectable=0;fillColor=none;top=0;left=0;bottom=0;right=0;overflow=hidden;strokeColor=inherit;fontSize=16;" parent="S2G6jcT_ubKv5hBvtlH8-148" vertex="1">
          <mxGeometry width="80" height="30" as="geometry">
            <mxRectangle width="80" height="30" as="alternateBounds" />
          </mxGeometry>
        </mxCell>
        <mxCell id="S2G6jcT_ubKv5hBvtlH8-150" value="Price" style="shape=partialRectangle;html=1;whiteSpace=wrap;connectable=0;fillColor=none;top=0;left=0;bottom=0;right=0;align=left;spacingLeft=6;overflow=hidden;strokeColor=inherit;fontSize=16;" parent="S2G6jcT_ubKv5hBvtlH8-148" vertex="1">
          <mxGeometry x="80" width="170" height="30" as="geometry">
            <mxRectangle width="170" height="30" as="alternateBounds" />
          </mxGeometry>
        </mxCell>
        <mxCell id="qOct966IXpE7ISBKhHLs-21" value="" style="shape=tableRow;horizontal=0;startSize=0;swimlaneHead=0;swimlaneBody=0;top=0;left=0;bottom=0;right=0;collapsible=0;dropTarget=0;fillColor=none;points=[[0,0.5],[1,0.5]];portConstraint=eastwest;strokeColor=inherit;fontSize=16;" parent="S2G6jcT_ubKv5hBvtlH8-132" vertex="1">
          <mxGeometry y="210" width="250" height="30" as="geometry" />
        </mxCell>
        <mxCell id="qOct966IXpE7ISBKhHLs-22" value="Guid" style="shape=partialRectangle;html=1;whiteSpace=wrap;connectable=0;fillColor=none;top=0;left=0;bottom=0;right=0;overflow=hidden;strokeColor=inherit;fontSize=16;" parent="qOct966IXpE7ISBKhHLs-21" vertex="1">
          <mxGeometry width="80" height="30" as="geometry">
            <mxRectangle width="80" height="30" as="alternateBounds" />
          </mxGeometry>
        </mxCell>
        <mxCell id="qOct966IXpE7ISBKhHLs-23" value="PermitTariffID(FK)" style="shape=partialRectangle;html=1;whiteSpace=wrap;connectable=0;fillColor=none;top=0;left=0;bottom=0;right=0;align=left;spacingLeft=6;overflow=hidden;strokeColor=inherit;fontSize=16;" parent="qOct966IXpE7ISBKhHLs-21" vertex="1">
          <mxGeometry x="80" width="170" height="30" as="geometry">
            <mxRectangle width="170" height="30" as="alternateBounds" />
          </mxGeometry>
        </mxCell>
        <mxCell id="S2G6jcT_ubKv5hBvtlH8-157" value="" style="edgeStyle=entityRelationEdgeStyle;fontSize=12;html=1;endArrow=ERoneToMany;rounded=0;entryX=-0.016;entryY=0.267;entryDx=0;entryDy=0;entryPerimeter=0;" parent="1" target="S2G6jcT_ubKv5hBvtlH8-15" edge="1">
          <mxGeometry width="100" height="100" relative="1" as="geometry">
            <mxPoint x="-565.5" y="-450" as="sourcePoint" />
            <mxPoint x="-455.5" y="-570" as="targetPoint" />
          </mxGeometry>
        </mxCell>
        <mxCell id="S2G6jcT_ubKv5hBvtlH8-158" value="" style="edgeStyle=entityRelationEdgeStyle;fontSize=12;html=1;endArrow=ERoneToMany;rounded=0;entryX=0;entryY=0.5;entryDx=0;entryDy=0;" parent="1" source="S2G6jcT_ubKv5hBvtlH8-2" target="S2G6jcT_ubKv5hBvtlH8-25" edge="1">
          <mxGeometry width="100" height="100" relative="1" as="geometry">
            <mxPoint x="-555.5" y="-440" as="sourcePoint" />
            <mxPoint x="-334" y="-662" as="targetPoint" />
          </mxGeometry>
        </mxCell>
        <mxCell id="S2G6jcT_ubKv5hBvtlH8-159" value="" style="edgeStyle=entityRelationEdgeStyle;fontSize=12;html=1;endArrow=ERoneToMany;rounded=0;exitX=1.02;exitY=0.198;exitDx=0;exitDy=0;exitPerimeter=0;" parent="1" source="S2G6jcT_ubKv5hBvtlH8-22" target="S2G6jcT_ubKv5hBvtlH8-35" edge="1">
          <mxGeometry width="100" height="100" relative="1" as="geometry">
            <mxPoint x="-80" y="-510" as="sourcePoint" />
            <mxPoint x="222.5" y="-445.59" as="targetPoint" />
          </mxGeometry>
        </mxCell>
        <mxCell id="S2G6jcT_ubKv5hBvtlH8-160" value="" style="edgeStyle=entityRelationEdgeStyle;fontSize=12;html=1;endArrow=ERoneToMany;rounded=0;" parent="1" source="S2G6jcT_ubKv5hBvtlH8-22" target="S2G6jcT_ubKv5hBvtlH8-136" edge="1">
          <mxGeometry width="100" height="100" relative="1" as="geometry">
            <mxPoint x="-78" y="-460" as="sourcePoint" />
            <mxPoint x="210" y="-625" as="targetPoint" />
          </mxGeometry>
        </mxCell>
        <mxCell id="S2G6jcT_ubKv5hBvtlH8-163" value="" style="edgeStyle=entityRelationEdgeStyle;fontSize=12;html=1;endArrow=ERoneToMany;rounded=0;exitX=1;exitY=0.5;exitDx=0;exitDy=0;entryX=-0.011;entryY=1.002;entryDx=0;entryDy=0;entryPerimeter=0;" parent="1" source="S2G6jcT_ubKv5hBvtlH8-52" target="S2G6jcT_ubKv5hBvtlH8-32" edge="1">
          <mxGeometry width="100" height="100" relative="1" as="geometry">
            <mxPoint x="-40" y="-809" as="sourcePoint" />
            <mxPoint x="276" y="-1020" as="targetPoint" />
          </mxGeometry>
        </mxCell>
        <mxCell id="S2G6jcT_ubKv5hBvtlH8-164" value="" style="edgeStyle=entityRelationEdgeStyle;fontSize=12;html=1;endArrow=ERoneToMany;rounded=0;exitX=1.008;exitY=0.271;exitDx=0;exitDy=0;exitPerimeter=0;entryX=-0.024;entryY=0.771;entryDx=0;entryDy=0;entryPerimeter=0;" parent="1" source="S2G6jcT_ubKv5hBvtlH8-72" target="S2G6jcT_ubKv5hBvtlH8-62" edge="1">
          <mxGeometry width="100" height="100" relative="1" as="geometry">
            <mxPoint x="-980" y="-604" as="sourcePoint" />
            <mxPoint x="-664" y="-815" as="targetPoint" />
          </mxGeometry>
        </mxCell>
        <mxCell id="S2G6jcT_ubKv5hBvtlH8-165" value="" style="edgeStyle=entityRelationEdgeStyle;fontSize=12;html=1;endArrow=ERoneToMany;rounded=0;exitX=1.007;exitY=0.653;exitDx=0;exitDy=0;exitPerimeter=0;" parent="1" source="S2G6jcT_ubKv5hBvtlH8-62" edge="1">
          <mxGeometry width="100" height="100" relative="1" as="geometry">
            <mxPoint x="-460" y="-860" as="sourcePoint" />
            <mxPoint x="-350" y="-850" as="targetPoint" />
          </mxGeometry>
        </mxCell>
        <mxCell id="S2G6jcT_ubKv5hBvtlH8-166" value="" style="edgeStyle=entityRelationEdgeStyle;fontSize=12;html=1;endArrow=ERoneToMany;rounded=0;entryX=0;entryY=0.5;entryDx=0;entryDy=0;exitX=1.011;exitY=0.2;exitDx=0;exitDy=0;exitPerimeter=0;" parent="1" source="S2G6jcT_ubKv5hBvtlH8-55" target="S2G6jcT_ubKv5hBvtlH8-133" edge="1">
          <mxGeometry width="100" height="100" relative="1" as="geometry">
            <mxPoint x="-60" y="-810" as="sourcePoint" />
            <mxPoint x="227" y="-700" as="targetPoint" />
          </mxGeometry>
        </mxCell>
        <mxCell id="HDbUbs_--1gFCd7Jgani-1" value="BankCard" style="shape=table;startSize=30;container=1;collapsible=0;childLayout=tableLayout;fixedRows=1;rowLines=0;fontStyle=0;strokeColor=default;fontSize=16;" parent="1" vertex="1">
          <mxGeometry x="-400" y="-320" width="240" height="150" as="geometry" />
        </mxCell>
        <mxCell id="HDbUbs_--1gFCd7Jgani-2" value="" style="shape=tableRow;horizontal=0;startSize=0;swimlaneHead=0;swimlaneBody=0;top=0;left=0;bottom=0;right=0;collapsible=0;dropTarget=0;fillColor=none;points=[[0,0.5],[1,0.5]];portConstraint=eastwest;strokeColor=inherit;fontSize=16;" parent="HDbUbs_--1gFCd7Jgani-1" vertex="1">
          <mxGeometry y="30" width="240" height="30" as="geometry" />
        </mxCell>
        <mxCell id="HDbUbs_--1gFCd7Jgani-3" value="Guid" style="shape=partialRectangle;html=1;whiteSpace=wrap;connectable=0;fillColor=none;top=0;left=0;bottom=0;right=0;overflow=hidden;pointerEvents=1;strokeColor=inherit;fontSize=16;" parent="HDbUbs_--1gFCd7Jgani-2" vertex="1">
          <mxGeometry width="76" height="30" as="geometry">
            <mxRectangle width="76" height="30" as="alternateBounds" />
          </mxGeometry>
        </mxCell>
        <mxCell id="HDbUbs_--1gFCd7Jgani-4" value="Id(PK)" style="shape=partialRectangle;html=1;whiteSpace=wrap;connectable=0;fillColor=none;top=0;left=0;bottom=0;right=0;align=left;spacingLeft=6;overflow=hidden;strokeColor=inherit;fontSize=16;" parent="HDbUbs_--1gFCd7Jgani-2" vertex="1">
          <mxGeometry x="76" width="164" height="30" as="geometry">
            <mxRectangle width="164" height="30" as="alternateBounds" />
          </mxGeometry>
        </mxCell>
        <mxCell id="HDbUbs_--1gFCd7Jgani-5" value="" style="shape=tableRow;horizontal=0;startSize=0;swimlaneHead=0;swimlaneBody=0;top=0;left=0;bottom=0;right=0;collapsible=0;dropTarget=0;fillColor=none;points=[[0,0.5],[1,0.5]];portConstraint=eastwest;strokeColor=inherit;fontSize=16;" parent="HDbUbs_--1gFCd7Jgani-1" vertex="1">
          <mxGeometry y="60" width="240" height="30" as="geometry" />
        </mxCell>
        <mxCell id="HDbUbs_--1gFCd7Jgani-6" value="Guid" style="shape=partialRectangle;html=1;whiteSpace=wrap;connectable=0;fillColor=none;top=0;left=0;bottom=0;right=0;overflow=hidden;strokeColor=inherit;fontSize=16;" parent="HDbUbs_--1gFCd7Jgani-5" vertex="1">
          <mxGeometry width="76" height="30" as="geometry">
            <mxRectangle width="76" height="30" as="alternateBounds" />
          </mxGeometry>
        </mxCell>
        <mxCell id="HDbUbs_--1gFCd7Jgani-7" value="CostumerID(FK)" style="shape=partialRectangle;html=1;whiteSpace=wrap;connectable=0;fillColor=none;top=0;left=0;bottom=0;right=0;align=left;spacingLeft=6;overflow=hidden;strokeColor=inherit;fontSize=16;" parent="HDbUbs_--1gFCd7Jgani-5" vertex="1">
          <mxGeometry x="76" width="164" height="30" as="geometry">
            <mxRectangle width="164" height="30" as="alternateBounds" />
          </mxGeometry>
        </mxCell>
        <mxCell id="HDbUbs_--1gFCd7Jgani-8" value="" style="shape=tableRow;horizontal=0;startSize=0;swimlaneHead=0;swimlaneBody=0;top=0;left=0;bottom=0;right=0;collapsible=0;dropTarget=0;fillColor=none;points=[[0,0.5],[1,0.5]];portConstraint=eastwest;strokeColor=inherit;fontSize=16;" parent="HDbUbs_--1gFCd7Jgani-1" vertex="1">
          <mxGeometry y="90" width="240" height="30" as="geometry" />
        </mxCell>
        <mxCell id="HDbUbs_--1gFCd7Jgani-9" value="Int" style="shape=partialRectangle;html=1;whiteSpace=wrap;connectable=0;fillColor=none;top=0;left=0;bottom=0;right=0;overflow=hidden;strokeColor=inherit;fontSize=16;" parent="HDbUbs_--1gFCd7Jgani-8" vertex="1">
          <mxGeometry width="76" height="30" as="geometry">
            <mxRectangle width="76" height="30" as="alternateBounds" />
          </mxGeometry>
        </mxCell>
        <mxCell id="HDbUbs_--1gFCd7Jgani-10" value="CardNumber" style="shape=partialRectangle;html=1;whiteSpace=wrap;connectable=0;fillColor=none;top=0;left=0;bottom=0;right=0;align=left;spacingLeft=6;overflow=hidden;strokeColor=inherit;fontSize=16;" parent="HDbUbs_--1gFCd7Jgani-8" vertex="1">
          <mxGeometry x="76" width="164" height="30" as="geometry">
            <mxRectangle width="164" height="30" as="alternateBounds" />
          </mxGeometry>
        </mxCell>
        <mxCell id="HDbUbs_--1gFCd7Jgani-11" value="" style="shape=tableRow;horizontal=0;startSize=0;swimlaneHead=0;swimlaneBody=0;top=0;left=0;bottom=0;right=0;collapsible=0;dropTarget=0;fillColor=none;points=[[0,0.5],[1,0.5]];portConstraint=eastwest;strokeColor=inherit;fontSize=16;" parent="HDbUbs_--1gFCd7Jgani-1" vertex="1">
          <mxGeometry y="120" width="240" height="30" as="geometry" />
        </mxCell>
        <mxCell id="HDbUbs_--1gFCd7Jgani-12" value="DateTime" style="shape=partialRectangle;html=1;whiteSpace=wrap;connectable=0;fillColor=none;top=0;left=0;bottom=0;right=0;overflow=hidden;strokeColor=inherit;fontSize=16;" parent="HDbUbs_--1gFCd7Jgani-11" vertex="1">
          <mxGeometry width="76" height="30" as="geometry">
            <mxRectangle width="76" height="30" as="alternateBounds" />
          </mxGeometry>
        </mxCell>
        <mxCell id="HDbUbs_--1gFCd7Jgani-13" value="ExpireDate" style="shape=partialRectangle;html=1;whiteSpace=wrap;connectable=0;fillColor=none;top=0;left=0;bottom=0;right=0;align=left;spacingLeft=6;overflow=hidden;strokeColor=inherit;fontSize=16;" parent="HDbUbs_--1gFCd7Jgani-11" vertex="1">
          <mxGeometry x="76" width="164" height="30" as="geometry">
            <mxRectangle width="164" height="30" as="alternateBounds" />
          </mxGeometry>
        </mxCell>
        <mxCell id="HDbUbs_--1gFCd7Jgani-14" value="" style="edgeStyle=entityRelationEdgeStyle;fontSize=12;html=1;endArrow=ERoneToMany;rounded=0;entryX=0;entryY=0.5;entryDx=0;entryDy=0;exitX=1.013;exitY=0.8;exitDx=0;exitDy=0;exitPerimeter=0;" parent="1" source="S2G6jcT_ubKv5hBvtlH8-2" target="HDbUbs_--1gFCd7Jgani-5" edge="1">
          <mxGeometry width="100" height="100" relative="1" as="geometry">
            <mxPoint x="-556" y="-390" as="sourcePoint" />
            <mxPoint x="-271" y="-390" as="targetPoint" />
            <Array as="points">
              <mxPoint x="-550" y="-398" />
            </Array>
          </mxGeometry>
        </mxCell>
        <mxCell id="HDbUbs_--1gFCd7Jgani-15" value="DriverLicense" style="shape=table;startSize=30;container=1;collapsible=0;childLayout=tableLayout;fixedRows=1;rowLines=0;fontStyle=0;strokeColor=default;fontSize=16;" parent="1" vertex="1">
          <mxGeometry x="-400" y="-130" width="260" height="150" as="geometry" />
        </mxCell>
        <mxCell id="HDbUbs_--1gFCd7Jgani-16" value="" style="shape=tableRow;horizontal=0;startSize=0;swimlaneHead=0;swimlaneBody=0;top=0;left=0;bottom=0;right=0;collapsible=0;dropTarget=0;fillColor=none;points=[[0,0.5],[1,0.5]];portConstraint=eastwest;strokeColor=inherit;fontSize=16;" parent="HDbUbs_--1gFCd7Jgani-15" vertex="1">
          <mxGeometry y="30" width="260" height="30" as="geometry" />
        </mxCell>
        <mxCell id="HDbUbs_--1gFCd7Jgani-17" value="Guid" style="shape=partialRectangle;html=1;whiteSpace=wrap;connectable=0;fillColor=none;top=0;left=0;bottom=0;right=0;overflow=hidden;pointerEvents=1;strokeColor=inherit;fontSize=16;" parent="HDbUbs_--1gFCd7Jgani-16" vertex="1">
          <mxGeometry width="80" height="30" as="geometry">
            <mxRectangle width="80" height="30" as="alternateBounds" />
          </mxGeometry>
        </mxCell>
        <mxCell id="HDbUbs_--1gFCd7Jgani-18" value="Id(PK)" style="shape=partialRectangle;html=1;whiteSpace=wrap;connectable=0;fillColor=none;top=0;left=0;bottom=0;right=0;align=left;spacingLeft=6;overflow=hidden;strokeColor=inherit;fontSize=16;" parent="HDbUbs_--1gFCd7Jgani-16" vertex="1">
          <mxGeometry x="80" width="180" height="30" as="geometry">
            <mxRectangle width="180" height="30" as="alternateBounds" />
          </mxGeometry>
        </mxCell>
        <mxCell id="HDbUbs_--1gFCd7Jgani-19" value="" style="shape=tableRow;horizontal=0;startSize=0;swimlaneHead=0;swimlaneBody=0;top=0;left=0;bottom=0;right=0;collapsible=0;dropTarget=0;fillColor=none;points=[[0,0.5],[1,0.5]];portConstraint=eastwest;strokeColor=inherit;fontSize=16;" parent="HDbUbs_--1gFCd7Jgani-15" vertex="1">
          <mxGeometry y="60" width="260" height="30" as="geometry" />
        </mxCell>
        <mxCell id="HDbUbs_--1gFCd7Jgani-20" value="Guid" style="shape=partialRectangle;html=1;whiteSpace=wrap;connectable=0;fillColor=none;top=0;left=0;bottom=0;right=0;overflow=hidden;strokeColor=inherit;fontSize=16;" parent="HDbUbs_--1gFCd7Jgani-19" vertex="1">
          <mxGeometry width="80" height="30" as="geometry">
            <mxRectangle width="80" height="30" as="alternateBounds" />
          </mxGeometry>
        </mxCell>
        <mxCell id="HDbUbs_--1gFCd7Jgani-21" value="CustomerID(FK)" style="shape=partialRectangle;html=1;whiteSpace=wrap;connectable=0;fillColor=none;top=0;left=0;bottom=0;right=0;align=left;spacingLeft=6;overflow=hidden;strokeColor=inherit;fontSize=16;" parent="HDbUbs_--1gFCd7Jgani-19" vertex="1">
          <mxGeometry x="80" width="180" height="30" as="geometry">
            <mxRectangle width="180" height="30" as="alternateBounds" />
          </mxGeometry>
        </mxCell>
        <mxCell id="HDbUbs_--1gFCd7Jgani-22" value="" style="shape=tableRow;horizontal=0;startSize=0;swimlaneHead=0;swimlaneBody=0;top=0;left=0;bottom=0;right=0;collapsible=0;dropTarget=0;fillColor=none;points=[[0,0.5],[1,0.5]];portConstraint=eastwest;strokeColor=inherit;fontSize=16;" parent="HDbUbs_--1gFCd7Jgani-15" vertex="1">
          <mxGeometry y="90" width="260" height="30" as="geometry" />
        </mxCell>
        <mxCell id="HDbUbs_--1gFCd7Jgani-23" value="Int" style="shape=partialRectangle;html=1;whiteSpace=wrap;connectable=0;fillColor=none;top=0;left=0;bottom=0;right=0;overflow=hidden;strokeColor=inherit;fontSize=16;" parent="HDbUbs_--1gFCd7Jgani-22" vertex="1">
          <mxGeometry width="80" height="30" as="geometry">
            <mxRectangle width="80" height="30" as="alternateBounds" />
          </mxGeometry>
        </mxCell>
        <mxCell id="HDbUbs_--1gFCd7Jgani-24" value="LicenseNumber" style="shape=partialRectangle;html=1;whiteSpace=wrap;connectable=0;fillColor=none;top=0;left=0;bottom=0;right=0;align=left;spacingLeft=6;overflow=hidden;strokeColor=inherit;fontSize=16;" parent="HDbUbs_--1gFCd7Jgani-22" vertex="1">
          <mxGeometry x="80" width="180" height="30" as="geometry">
            <mxRectangle width="180" height="30" as="alternateBounds" />
          </mxGeometry>
        </mxCell>
        <mxCell id="HDbUbs_--1gFCd7Jgani-25" value="" style="shape=tableRow;horizontal=0;startSize=0;swimlaneHead=0;swimlaneBody=0;top=0;left=0;bottom=0;right=0;collapsible=0;dropTarget=0;fillColor=none;points=[[0,0.5],[1,0.5]];portConstraint=eastwest;strokeColor=inherit;fontSize=16;" parent="HDbUbs_--1gFCd7Jgani-15" vertex="1">
          <mxGeometry y="120" width="260" height="30" as="geometry" />
        </mxCell>
        <mxCell id="HDbUbs_--1gFCd7Jgani-26" value="DateTime" style="shape=partialRectangle;html=1;whiteSpace=wrap;connectable=0;fillColor=none;top=0;left=0;bottom=0;right=0;overflow=hidden;strokeColor=inherit;fontSize=16;" parent="HDbUbs_--1gFCd7Jgani-25" vertex="1">
          <mxGeometry width="80" height="30" as="geometry">
            <mxRectangle width="80" height="30" as="alternateBounds" />
          </mxGeometry>
        </mxCell>
        <mxCell id="HDbUbs_--1gFCd7Jgani-27" value="ExpireDate" style="shape=partialRectangle;html=1;whiteSpace=wrap;connectable=0;fillColor=none;top=0;left=0;bottom=0;right=0;align=left;spacingLeft=6;overflow=hidden;strokeColor=inherit;fontSize=16;" parent="HDbUbs_--1gFCd7Jgani-25" vertex="1">
          <mxGeometry x="80" width="180" height="30" as="geometry">
            <mxRectangle width="180" height="30" as="alternateBounds" />
          </mxGeometry>
        </mxCell>
        <mxCell id="HDbUbs_--1gFCd7Jgani-28" value="" style="edgeStyle=entityRelationEdgeStyle;fontSize=12;html=1;endArrow=ERoneToMany;rounded=0;entryX=-0.015;entryY=0.1;entryDx=0;entryDy=0;exitX=1.008;exitY=1.156;exitDx=0;exitDy=0;exitPerimeter=0;entryPerimeter=0;" parent="1" source="S2G6jcT_ubKv5hBvtlH8-2" target="HDbUbs_--1gFCd7Jgani-19" edge="1">
          <mxGeometry width="100" height="100" relative="1" as="geometry">
            <mxPoint x="-563" y="-240" as="sourcePoint" />
            <mxPoint x="-400" y="-49" as="targetPoint" />
            <Array as="points">
              <mxPoint x="-550" y="-202" />
            </Array>
          </mxGeometry>
        </mxCell>
        <mxCell id="qOct966IXpE7ISBKhHLs-1" value="PermitTariff" style="shape=table;startSize=30;container=1;collapsible=0;childLayout=tableLayout;fixedRows=1;rowLines=0;fontStyle=0;strokeColor=default;fontSize=16;" parent="1" vertex="1">
          <mxGeometry y="-350" width="200" height="150" as="geometry" />
        </mxCell>
        <mxCell id="qOct966IXpE7ISBKhHLs-2" value="" style="shape=tableRow;horizontal=0;startSize=0;swimlaneHead=0;swimlaneBody=0;top=0;left=0;bottom=0;right=0;collapsible=0;dropTarget=0;fillColor=none;points=[[0,0.5],[1,0.5]];portConstraint=eastwest;strokeColor=inherit;fontSize=16;" parent="qOct966IXpE7ISBKhHLs-1" vertex="1">
          <mxGeometry y="30" width="200" height="30" as="geometry" />
        </mxCell>
        <mxCell id="qOct966IXpE7ISBKhHLs-3" value="Guid" style="shape=partialRectangle;html=1;whiteSpace=wrap;connectable=0;fillColor=none;top=0;left=0;bottom=0;right=0;overflow=hidden;pointerEvents=1;strokeColor=inherit;fontSize=16;" parent="qOct966IXpE7ISBKhHLs-2" vertex="1">
          <mxGeometry width="87" height="30" as="geometry">
            <mxRectangle width="87" height="30" as="alternateBounds" />
          </mxGeometry>
        </mxCell>
        <mxCell id="qOct966IXpE7ISBKhHLs-4" value="Id(PK)" style="shape=partialRectangle;html=1;whiteSpace=wrap;connectable=0;fillColor=none;top=0;left=0;bottom=0;right=0;align=left;spacingLeft=6;overflow=hidden;strokeColor=inherit;fontSize=16;" parent="qOct966IXpE7ISBKhHLs-2" vertex="1">
          <mxGeometry x="87" width="113" height="30" as="geometry">
            <mxRectangle width="113" height="30" as="alternateBounds" />
          </mxGeometry>
        </mxCell>
        <mxCell id="qOct966IXpE7ISBKhHLs-8" value="" style="shape=tableRow;horizontal=0;startSize=0;swimlaneHead=0;swimlaneBody=0;top=0;left=0;bottom=0;right=0;collapsible=0;dropTarget=0;fillColor=none;points=[[0,0.5],[1,0.5]];portConstraint=eastwest;strokeColor=inherit;fontSize=16;" parent="qOct966IXpE7ISBKhHLs-1" vertex="1">
          <mxGeometry y="60" width="200" height="30" as="geometry" />
        </mxCell>
        <mxCell id="qOct966IXpE7ISBKhHLs-9" value="Char" style="shape=partialRectangle;html=1;whiteSpace=wrap;connectable=0;fillColor=none;top=0;left=0;bottom=0;right=0;overflow=hidden;strokeColor=inherit;fontSize=16;" parent="qOct966IXpE7ISBKhHLs-8" vertex="1">
          <mxGeometry width="87" height="30" as="geometry">
            <mxRectangle width="87" height="30" as="alternateBounds" />
          </mxGeometry>
        </mxCell>
        <mxCell id="qOct966IXpE7ISBKhHLs-10" value="VehicleType" style="shape=partialRectangle;html=1;whiteSpace=wrap;connectable=0;fillColor=none;top=0;left=0;bottom=0;right=0;align=left;spacingLeft=6;overflow=hidden;strokeColor=inherit;fontSize=16;" parent="qOct966IXpE7ISBKhHLs-8" vertex="1">
          <mxGeometry x="87" width="113" height="30" as="geometry">
            <mxRectangle width="113" height="30" as="alternateBounds" />
          </mxGeometry>
        </mxCell>
        <mxCell id="qOct966IXpE7ISBKhHLs-11" value="" style="shape=tableRow;horizontal=0;startSize=0;swimlaneHead=0;swimlaneBody=0;top=0;left=0;bottom=0;right=0;collapsible=0;dropTarget=0;fillColor=none;points=[[0,0.5],[1,0.5]];portConstraint=eastwest;strokeColor=inherit;fontSize=16;" parent="qOct966IXpE7ISBKhHLs-1" vertex="1">
          <mxGeometry y="90" width="200" height="30" as="geometry" />
        </mxCell>
        <mxCell id="qOct966IXpE7ISBKhHLs-12" value="Char" style="shape=partialRectangle;html=1;whiteSpace=wrap;connectable=0;fillColor=none;top=0;left=0;bottom=0;right=0;overflow=hidden;strokeColor=inherit;fontSize=16;" parent="qOct966IXpE7ISBKhHLs-11" vertex="1">
          <mxGeometry width="87" height="30" as="geometry">
            <mxRectangle width="87" height="30" as="alternateBounds" />
          </mxGeometry>
        </mxCell>
        <mxCell id="qOct966IXpE7ISBKhHLs-13" value="Type" style="shape=partialRectangle;html=1;whiteSpace=wrap;connectable=0;fillColor=none;top=0;left=0;bottom=0;right=0;align=left;spacingLeft=6;overflow=hidden;strokeColor=inherit;fontSize=16;" parent="qOct966IXpE7ISBKhHLs-11" vertex="1">
          <mxGeometry x="87" width="113" height="30" as="geometry">
            <mxRectangle width="113" height="30" as="alternateBounds" />
          </mxGeometry>
        </mxCell>
        <mxCell id="qOct966IXpE7ISBKhHLs-14" value="" style="shape=tableRow;horizontal=0;startSize=0;swimlaneHead=0;swimlaneBody=0;top=0;left=0;bottom=0;right=0;collapsible=0;dropTarget=0;fillColor=none;points=[[0,0.5],[1,0.5]];portConstraint=eastwest;strokeColor=inherit;fontSize=16;" parent="qOct966IXpE7ISBKhHLs-1" vertex="1">
          <mxGeometry y="120" width="200" height="30" as="geometry" />
        </mxCell>
        <mxCell id="qOct966IXpE7ISBKhHLs-15" value="Decimal" style="shape=partialRectangle;html=1;whiteSpace=wrap;connectable=0;fillColor=none;top=0;left=0;bottom=0;right=0;overflow=hidden;strokeColor=inherit;fontSize=16;" parent="qOct966IXpE7ISBKhHLs-14" vertex="1">
          <mxGeometry width="87" height="30" as="geometry">
            <mxRectangle width="87" height="30" as="alternateBounds" />
          </mxGeometry>
        </mxCell>
        <mxCell id="qOct966IXpE7ISBKhHLs-16" value="Price" style="shape=partialRectangle;html=1;whiteSpace=wrap;connectable=0;fillColor=none;top=0;left=0;bottom=0;right=0;align=left;spacingLeft=6;overflow=hidden;strokeColor=inherit;fontSize=16;" parent="qOct966IXpE7ISBKhHLs-14" vertex="1">
          <mxGeometry x="87" width="113" height="30" as="geometry">
            <mxRectangle width="113" height="30" as="alternateBounds" />
          </mxGeometry>
        </mxCell>
        <mxCell id="qOct966IXpE7ISBKhHLs-17" value="" style="edgeStyle=entityRelationEdgeStyle;fontSize=12;html=1;endArrow=ERoneToMany;rounded=0;exitX=1;exitY=0.5;exitDx=0;exitDy=0;entryX=-0.013;entryY=0.311;entryDx=0;entryDy=0;entryPerimeter=0;" parent="1" source="qOct966IXpE7ISBKhHLs-2" target="qOct966IXpE7ISBKhHLs-21" edge="1">
          <mxGeometry width="100" height="100" relative="1" as="geometry">
            <mxPoint x="363.99999999999955" y="-160" as="sourcePoint" />
            <mxPoint x="390" y="-270" as="targetPoint" />
          </mxGeometry>
        </mxCell>
      </root>
    </mxGraphModel>
  </diagram>
</mxfile>
